<svg width="122" height="62" viewBox="0 0 122 62" fill="none" xmlns="http://www.w3.org/2000/svg">
<path d="M25.4425 26.4699C24.5738 27.4628 23.8291 28.4556 23.4568 29.6967C23.2085 30.4414 22.8362 31.3102 22.4639 32.0548C22.0916 32.7995 21.7192 33.5442 21.3469 34.2888C20.7263 35.654 20.354 37.1433 19.9817 38.6327C19.7335 40.122 19.3611 41.6113 19.1129 43.1006C18.8647 44.3417 18.7406 45.5828 18.6165 46.8239C18.4924 48.065 18.3683 49.3061 18.2442 50.5472C18.2442 50.9195 18.12 51.2919 17.9959 51.7883C17.8718 52.1606 17.7477 52.533 17.7477 53.0294C17.7477 53.1535 17.6236 53.2776 17.6236 53.4017C17.4995 53.5258 17.4995 53.5258 17.3754 53.5258C17.0031 53.65 16.7548 53.6499 16.3825 53.6499C16.0102 53.6499 15.762 53.7741 15.3896 53.7741C15.0173 53.7741 14.7691 53.7741 14.5209 53.6499C14.2726 53.5258 14.0244 53.2776 13.7762 53.0294C13.4039 52.6571 13.2798 52.4089 13.1556 52.0365C13.0315 51.6642 13.0315 51.2919 13.0315 50.9195C13.0315 50.299 12.9074 49.5543 12.7833 48.9338C12.6592 48.3132 12.5351 47.6927 12.5351 46.948C12.411 45.831 12.2869 44.5899 12.1628 43.4729C12.0387 42.356 11.9145 41.239 11.7904 39.9979C11.7904 39.5014 11.6663 39.1291 11.6663 38.6327C11.5422 38.1362 11.5422 37.6398 11.4181 37.1433C11.1699 37.3916 10.9217 37.6398 10.7976 37.888C10.6734 38.1362 10.5493 38.3844 10.4252 38.6327C10.3011 38.8809 10.3011 39.1291 10.3011 39.3773C10.3011 39.6255 10.177 39.8738 10.177 40.122C9.80468 41.239 9.55646 42.356 9.18413 43.4729C8.93591 44.5899 8.56358 45.7069 8.31536 46.8239C8.06714 47.8168 7.81892 48.8097 7.5707 49.8025C7.32248 50.7954 7.07426 51.7883 6.82604 52.9053L6.70193 53.5258C6.57782 54.1464 6.20549 54.5187 5.58494 54.3946C5.33672 54.3946 5.21261 54.3946 4.96439 54.3946C4.71617 54.3946 4.46796 54.3946 4.34385 54.3946C3.84741 54.3946 3.47508 54.1464 3.10275 53.6499C2.73042 53.2776 2.60631 52.7812 2.60631 52.2847C2.60631 51.416 2.60631 50.5472 2.60631 49.8025C2.60631 48.9338 2.60631 48.065 2.60631 47.3203C2.60631 45.9551 2.60631 44.4658 2.4822 43.1006C2.60631 41.3631 2.4822 39.9979 2.4822 38.5085C2.4822 36.5228 2.23398 34.537 2.10987 32.6754C1.86165 30.8137 1.36521 28.828 0.620549 26.9663C0.496439 26.7181 0.37233 26.594 0.37233 26.3458C0.24822 26.0976 0.24822 25.9734 0.24822 25.7252C0 25.3529 0 25.1047 0 24.8565C0.12411 24.7323 0.37233 24.6082 0.744659 24.4841C1.36521 24.4841 1.98576 24.4841 2.35809 24.7324C2.85453 24.9806 3.22686 25.3529 3.47508 26.0976C3.97152 27.3387 4.46796 28.5798 4.84028 29.945C5.21261 31.1861 5.58494 32.5513 5.83316 33.9165C6.08138 35.4058 6.20549 36.8951 6.3296 38.2603C6.45371 39.7496 6.45371 41.239 6.45371 42.7283C6.45371 42.8524 6.45371 42.8524 6.45371 42.9765C6.45371 43.1006 6.45371 43.2247 6.45371 43.3488C6.70193 43.3488 6.95015 43.2247 6.95015 42.9765C7.32248 42.7283 7.32248 42.4801 7.44659 42.356C7.94303 40.7425 8.56358 39.1291 9.18413 37.6398C9.80468 36.0263 10.5493 34.537 11.294 33.0477C11.4181 32.7995 11.5422 32.5513 11.5422 32.3031C11.5422 32.0548 11.5422 31.8066 11.5422 31.5584C11.5422 30.9378 11.6663 30.5655 11.7904 30.3173C11.9145 30.0691 12.2869 29.945 12.9074 29.945C13.0315 29.945 13.2798 29.945 13.4039 29.945C13.528 29.945 13.6521 29.945 13.7762 29.8209C13.9003 29.8209 14.0244 29.6967 14.1485 29.6967C14.2726 29.5726 14.3967 29.5726 14.645 29.4485L16.2584 44.5899H16.5066C16.6307 44.3417 16.6307 44.0935 16.7548 43.9694C17.0031 42.356 17.4995 40.7425 17.9959 39.1291C18.4924 37.5157 19.1129 36.0263 19.7335 34.4129C20.2299 33.42 20.6022 32.4272 21.0987 31.3102C21.5951 30.3173 21.9674 29.2003 22.3398 28.2074C22.7121 27.2145 23.2085 26.4699 23.9532 25.8493C24.6979 25.2288 25.6907 25.1047 26.8077 25.3529L25.4425 26.4699Z" fill="white"/>
<path d="M30.1587 47.072C30.2828 47.1962 30.4069 47.1962 30.5311 47.1962C30.6552 47.1962 30.9034 47.1962 31.0275 47.072C31.1516 46.9479 31.3998 46.8238 31.5239 46.6997C31.7722 46.5756 31.8963 46.4515 32.1445 46.2033C32.3927 46.0792 32.6409 45.8309 33.0133 45.7068C33.0133 45.9551 32.8891 46.3274 32.765 46.6997C32.6409 47.072 32.3927 47.3203 31.8963 47.6926C31.5239 48.0649 31.1516 48.3131 30.9034 48.4373C30.6552 48.5614 30.2828 48.5614 29.7864 48.4373H29.6623C29.5382 48.6855 29.5382 49.0578 29.4141 49.306C29.29 49.5542 29.29 49.8025 29.0417 50.1748C28.7935 50.6712 28.5453 51.1677 28.173 51.6641C27.8006 52.1606 27.3042 52.2847 26.5595 52.4088C25.4426 52.4088 24.3256 52.0364 23.2086 51.2918C22.8362 51.0436 22.588 50.7953 22.4639 50.423C22.3398 50.0507 22.2157 49.6784 22.2157 49.306V45.5827C22.2157 45.4586 22.2157 45.3345 22.2157 45.2104C22.2157 45.0863 22.2157 44.9622 22.2157 44.8381L22.4639 42.3559C22.7121 41.1148 22.9604 39.9978 23.3327 38.8808C23.705 37.7638 24.0773 36.6468 24.5738 35.5298L24.9461 34.9093C25.3184 34.1646 25.939 33.9164 26.8078 34.1646C27.3042 34.2887 27.8006 34.4128 28.2971 34.5369C28.7935 34.6611 29.29 34.7852 29.7864 34.9093V35.0334V35.1575C29.4141 35.4057 29.1659 35.5298 28.7935 35.778C28.4212 35.9022 28.173 36.1504 27.9248 36.3986C27.6765 36.6468 27.4283 36.895 27.3042 37.2674C27.1801 37.6397 27.056 38.012 27.1801 38.3844C27.8006 38.5085 28.4212 38.6326 29.0417 38.7567C29.6623 38.8808 30.2828 39.0049 30.9034 39.0049L31.648 42.2318C31.648 42.48 31.648 42.7282 31.5239 42.9764C31.3998 43.2246 31.3998 43.3487 31.2757 43.597C31.1516 43.8452 31.0275 44.0934 30.9034 44.3416C30.7793 44.5898 30.6552 44.9622 30.5311 45.4586L30.1587 47.072ZM27.056 50.1748C27.3042 49.5542 27.5524 48.9337 27.8006 48.3131C28.0489 47.6926 28.173 47.072 28.4212 46.4515L28.2971 45.9551C28.173 45.4586 28.0489 44.8381 28.0489 43.9693C28.0489 43.1005 28.0489 42.2318 28.173 41.363C27.9248 40.9907 27.6765 40.6183 27.4283 40.246C27.3042 39.8737 27.1801 39.3772 27.1801 38.8808C27.056 38.8808 26.9319 38.8808 26.8078 38.8808C26.8078 39.0049 26.6837 39.0049 26.6837 39.129C26.6837 39.2531 26.5595 39.2531 26.5595 39.3772C26.0631 40.7424 25.6908 42.2318 25.4426 43.7211C25.1943 45.2104 25.0702 46.6997 25.0702 48.189C25.0702 48.5614 25.0702 48.9337 25.0702 49.306C25.0702 49.6784 25.1943 50.0507 25.3184 50.423C25.3184 50.5471 25.4426 50.6712 25.5667 50.7953C25.6908 50.9195 25.8149 51.0436 25.939 51.1677C26.0631 51.1677 26.1872 51.1677 26.3113 51.1677C26.4354 51.0436 26.5595 51.0436 26.6837 50.9194C26.8078 50.6712 27.056 50.423 27.056 50.1748Z" fill="white"/>
<path d="M47.9065 46.0791C48.0306 46.2032 48.2788 46.3274 48.6511 46.3274C48.8993 46.3274 49.3958 46.0791 49.8922 45.7068C49.7681 46.0791 49.644 46.3274 49.5199 46.5756C49.3958 46.8238 49.1476 47.072 49.0235 47.1961C48.8993 47.3202 48.6511 47.4443 48.527 47.5685C48.4029 47.6926 48.2788 47.6926 48.1547 47.6926C48.0306 47.6926 47.9065 47.5685 47.7824 47.4443C47.6582 47.3202 47.41 47.1961 47.2859 47.072L46.5413 46.4515C46.4171 46.6997 46.4171 47.1961 46.293 47.6926C46.293 48.189 46.1689 48.8096 45.9207 49.5542C45.7966 50.0507 45.5484 50.5471 45.3002 50.7953C45.0519 51.1676 44.6796 51.2918 44.1832 51.4159C43.8108 51.54 43.3144 51.54 42.818 51.4159C42.3215 51.2918 41.9492 51.0435 41.4528 50.6712C41.0804 50.423 40.9563 50.0507 40.8322 49.8024C40.7081 49.4301 40.584 49.1819 40.584 48.8096L40.4599 45.955C40.4599 45.5827 40.3358 45.3345 40.3358 44.9621C40.3358 44.5898 40.2117 44.3416 40.2117 43.9693H40.0875H39.9634C39.8393 44.4657 39.5911 44.9622 39.467 45.4586C39.3429 45.955 39.0947 46.4515 38.9706 46.9479C38.7223 47.5685 38.5982 48.3131 38.35 48.9337C38.1018 49.5542 37.9777 50.2989 37.7295 50.9194C37.4812 51.54 37.233 51.9123 36.7366 52.0364C36.3643 52.1605 35.8678 52.1605 35.1232 51.7882C34.6267 51.54 34.1303 51.2918 33.7579 50.9194C33.3856 50.5471 33.0133 50.0507 32.7651 49.6783C32.641 49.4301 32.5168 49.1819 32.5168 48.9337C32.5168 48.6854 32.5168 48.4372 32.5168 48.189C32.5168 47.8167 32.5168 47.3202 32.641 46.6997C32.641 46.0791 32.641 45.5827 32.7651 44.9621C32.7651 44.3416 32.7651 43.721 32.8892 43.2246C32.8892 42.6041 32.8892 42.1076 33.0133 41.7353V41.6112C33.0133 41.363 33.1374 40.9906 33.1374 40.6183C33.2615 40.246 33.2615 39.7495 33.2615 39.2531C33.2615 38.7567 33.3856 38.3843 33.3856 37.8879C33.5097 37.5156 33.5097 37.1432 33.5097 36.895C33.6338 36.3986 33.7579 36.0262 33.8821 35.778C34.0062 35.5298 34.1303 35.2816 34.3785 35.2816C34.6267 35.1575 34.8749 35.1575 35.1232 35.1575C35.4955 35.1575 35.8678 35.2816 36.3642 35.4057C36.6125 35.4057 36.9848 35.5298 37.233 35.6539C37.4812 35.778 37.8536 35.9021 38.1018 36.0262C37.9777 36.2745 37.9777 36.3986 37.8536 36.5227C37.8536 36.6468 37.7295 36.7709 37.6053 36.895C36.7366 37.5156 36.4884 38.3843 36.8607 39.5013V39.6254C36.8607 39.7495 36.8607 39.7495 36.8607 39.7495C36.6125 40.1219 36.4884 40.3701 36.3642 40.7424C36.2401 41.1147 36.2401 41.4871 36.116 41.8594C36.116 42.2317 35.9919 42.6041 35.9919 42.9764C35.9919 43.3487 35.9919 43.7211 35.8678 44.0934C35.7437 44.9621 35.6196 45.8309 35.4955 46.6997C35.3714 47.5685 35.2473 48.4372 35.1232 49.306C35.1232 49.5542 34.999 49.6783 35.1232 49.9265C35.1232 50.0507 35.2473 50.2989 35.6196 50.5471L36.4884 48.9337C37.1089 47.4443 37.8536 45.8309 38.5982 44.3416C39.3429 42.8523 39.9634 41.2389 40.7081 39.7495C41.0804 39.0049 41.701 39.0049 42.6939 39.6254C42.5697 41.2389 42.4456 42.8523 42.4456 44.4657C42.4456 46.0791 42.5697 47.6926 42.6939 49.306H42.818H42.9421L43.1903 48.6854C43.3144 47.9408 43.4385 47.4443 43.5626 47.072C43.6867 46.6997 43.6867 46.3274 43.8108 46.0791C43.9349 45.8309 44.0591 45.4586 44.1832 45.0863C44.3073 44.7139 44.5555 44.2175 44.9278 43.5969C45.0519 43.2246 45.1761 42.7282 45.1761 42.3558C45.1761 41.8594 45.176 41.4871 45.3002 40.9906L45.5484 39.6254C45.6725 39.2531 45.9207 39.0049 46.4172 39.0049C46.6654 39.0049 46.9136 39.0049 47.1618 39.0049C47.41 39.0049 47.6582 39.129 47.7824 39.3772C48.1547 39.8736 48.2788 40.4942 48.0306 41.1147C47.6582 42.2317 47.41 43.2246 47.1618 44.3416C47.1618 44.4657 47.1618 44.5898 47.1618 44.7139C47.1618 44.838 47.1618 45.0863 47.2859 45.3345C47.2859 45.5827 47.41 45.7068 47.5341 45.8309C47.7824 45.955 47.7824 46.0791 47.9065 46.0791Z" fill="white"/>
<path d="M62.179 25.1048C63.296 24.8566 64.0406 25.353 64.413 26.5941C64.5371 27.0905 64.6612 27.587 64.5371 28.2075C64.5371 28.704 64.413 29.2004 64.2888 29.821C64.0406 30.5656 63.9165 31.3103 63.6683 32.0549C63.4201 32.7996 63.1719 33.5442 62.7995 34.1648C62.5513 34.5371 62.3031 35.0336 62.179 35.53C62.0549 36.0264 61.8066 36.3988 61.5584 36.8952L59.5727 41.115C59.5727 41.2391 59.4486 41.3632 59.4486 41.4873C59.4486 41.6114 59.3245 41.8596 59.3245 41.9837L60.1932 42.2319C60.3173 42.2319 60.5656 42.3561 60.6897 42.3561C60.8138 42.3561 61.062 42.4802 61.1861 42.4802C61.5584 42.6043 61.9308 42.8525 62.3031 43.1007C62.6754 43.3489 62.9236 43.7213 63.1719 44.0936C63.4201 44.4659 63.5442 44.8382 63.6683 45.3347C63.7924 45.707 63.7924 46.2035 63.7924 46.5758C63.7924 46.6999 63.7924 46.824 63.6683 46.9481L60.6897 50.4232C60.5656 50.5473 60.4414 50.6714 60.3173 50.7955C60.1932 50.9196 60.0691 51.0437 59.945 51.292C59.8209 51.5402 59.6968 51.7884 59.5727 52.0366C59.4486 52.2848 59.3245 52.5331 59.0762 52.7813C58.7039 53.4018 58.2075 53.65 57.711 53.7742C57.2146 53.8983 56.594 53.6501 56.0976 53.2777C55.7253 53.0295 55.6012 52.5331 55.8494 52.0366C56.3458 51.1679 56.8423 50.2991 57.3387 49.5544C57.9592 48.8098 58.5798 48.0651 59.2003 47.3204L59.945 46.3276C60.3173 45.707 60.4414 45.2106 60.1932 44.59C59.945 44.0936 59.5727 43.7213 58.828 43.473C58.4557 43.3489 58.2075 43.2248 57.8351 43.2248C57.4628 43.1007 57.2146 43.1007 56.9664 42.8525C56.7181 42.7284 56.594 42.6043 56.3458 42.4802C56.0976 42.3561 55.9735 42.2319 55.6012 41.9837C56.4699 40.9908 57.0905 39.8739 57.5869 38.881C58.0834 37.764 58.5798 36.647 58.9521 35.6541C59.3245 34.6612 59.6968 33.6684 60.0691 32.6755C60.4414 31.6826 60.8138 30.6897 61.1861 29.6968C61.4343 29.0763 61.5584 28.5799 61.5584 28.2075C61.5584 27.8352 61.5584 27.4629 61.4343 26.8423C61.062 26.9664 60.6897 27.2146 60.4414 27.4629C60.1932 27.7111 59.8209 27.9593 59.5727 28.2075C59.0762 28.8281 58.4557 29.5727 57.9592 30.1933C57.4628 30.8138 57.0905 31.5585 56.7181 32.4273C56.594 32.7996 56.3458 33.296 56.2217 33.6684C56.0976 34.0407 55.9735 34.5371 55.8494 34.9095C55.6012 36.0264 55.2288 37.0193 54.8565 38.1363C54.4842 39.1292 54.2359 40.2462 54.2359 41.4873L53.8636 47.1963C53.8636 47.8169 53.7395 48.5615 53.7395 49.1821C53.7395 49.8026 53.7395 50.4232 53.7395 51.1679C53.7395 52.0366 53.2431 52.409 52.3743 52.1607L51.6296 51.9125C51.1332 51.7884 50.7609 51.5402 50.6368 51.4161C50.5127 51.292 50.5127 50.9196 50.5127 50.2991C50.6368 49.4303 50.7609 48.6857 50.7609 47.8169C50.885 46.9481 50.885 46.2035 50.885 45.3347C50.885 43.8454 51.0091 42.4802 50.885 40.9908C50.885 39.6256 50.885 38.1363 50.885 36.647C50.885 35.0336 50.7609 33.4201 50.6368 31.9308C50.3885 30.3174 50.1403 28.8281 49.768 27.2146C49.768 27.0905 49.6439 26.8423 49.6439 26.7182C49.6439 26.5941 49.5198 26.3459 49.5198 26.2218C50.1403 25.9735 50.885 25.9735 51.3814 26.2218C52.002 26.3459 52.4984 26.7182 52.8707 27.3388C53.2431 27.8352 53.4913 28.3316 53.6154 28.8281C53.8636 29.3245 53.8636 29.9451 53.8636 30.5656C53.8636 31.1862 53.8636 31.9308 53.8636 32.5514C53.8636 33.1719 53.8636 33.9166 53.8636 34.5371C53.9877 34.5371 54.1118 34.6612 54.2359 34.6612C54.3601 34.5371 54.3601 34.2889 54.4842 34.1648C54.6083 34.0407 54.6083 33.7925 54.7324 33.6684C55.2288 31.9308 56.0976 30.4415 57.0905 29.2004C58.2075 27.9593 59.4486 26.7182 60.8138 25.7253C60.9379 25.6012 61.1861 25.4771 61.4343 25.353C61.8067 25.2289 62.0549 25.1048 62.179 25.1048Z" fill="white"/>
<path d="M72.4801 47.072C72.6043 47.1962 72.7284 47.1962 72.8525 47.1962C72.9766 47.1962 73.2248 47.1962 73.3489 47.072C73.473 46.9479 73.7212 46.8238 73.8453 46.6997C74.0936 46.5756 74.2177 46.4515 74.4659 46.2033C74.7141 46.0792 74.9623 45.8309 75.3347 45.7068C75.3347 45.9551 75.2106 46.3274 75.0864 46.6997C74.9623 47.072 74.7141 47.3203 74.2177 47.6926C73.8453 48.0649 73.473 48.3131 73.2248 48.4373C72.9766 48.5614 72.6042 48.5614 72.1078 48.4373H71.9837C71.8596 48.6855 71.8596 49.0578 71.7355 49.306C71.6114 49.5542 71.6114 49.8025 71.3632 50.1748C71.1149 50.6712 70.8667 51.1677 70.4944 51.6641C70.1221 52.1606 69.6256 52.2847 68.881 52.4088C67.764 52.4088 66.647 52.0364 65.53 51.2918C65.1577 51.0436 64.9094 50.7953 64.7853 50.423C64.6612 50.0507 64.5371 49.6784 64.5371 49.306V45.5827C64.5371 45.4586 64.5371 45.3345 64.5371 45.2104C64.5371 45.0863 64.5371 44.9622 64.5371 44.8381L64.7853 42.3559C65.0335 41.1148 65.2818 39.9978 65.6541 38.8808C66.0264 37.7638 66.3988 36.6468 66.8952 35.5298L67.2675 34.9093C67.6399 34.1646 68.2604 33.9164 69.1292 34.1646C69.6256 34.2887 70.1221 34.4128 70.6185 34.5369C71.1149 34.6611 71.6114 34.7852 72.1078 34.9093V35.0334V35.1575C71.7355 35.4057 71.4873 35.5298 71.1149 35.778C70.7426 35.9022 70.4944 36.1504 70.2462 36.3986C69.9979 36.6468 69.7497 36.895 69.6256 37.2674C69.5015 37.6397 69.3774 38.012 69.5015 38.3844C70.1221 38.5085 70.7426 38.6326 71.3632 38.7567C71.9837 38.8808 72.6043 39.0049 73.2248 39.0049L73.9695 42.2318C73.9695 42.48 73.9695 42.7282 73.8453 42.9764C73.7212 43.2246 73.7212 43.3487 73.5971 43.597C73.473 43.8452 73.3489 44.0934 73.2248 44.3416C73.1007 44.5898 72.9766 44.9622 72.8525 45.4586L72.4801 47.072ZM69.5015 50.1748C69.7497 49.5542 69.9979 48.9337 70.2462 48.3131C70.4944 47.6926 70.6185 47.072 70.8667 46.4515L70.7426 45.9551C70.6185 45.4586 70.4944 44.8381 70.4944 43.9693C70.4944 43.1005 70.4944 42.2318 70.6185 41.363C70.3703 40.9907 70.1221 40.6183 69.8738 40.246C69.7497 39.8737 69.6256 39.3772 69.6256 38.8808C69.5015 38.8808 69.3774 38.8808 69.2533 38.8808C69.2533 39.0049 69.1292 39.0049 69.1292 39.129C69.1292 39.2531 69.0051 39.2531 69.0051 39.3772C68.5086 40.7424 68.1363 42.2318 67.8881 43.7211C67.6399 45.2104 67.5157 46.6997 67.5157 48.189C67.5157 48.5614 67.5157 48.9337 67.5157 49.306C67.5157 49.6784 67.6399 50.0507 67.764 50.423C67.764 50.5471 67.8881 50.6712 68.0122 50.7953C68.1363 50.9195 68.2604 51.0436 68.3845 51.1677C68.5086 51.1677 68.6327 51.1677 68.7568 51.1677C68.881 51.0436 69.0051 51.0436 69.1292 50.9194C69.2533 50.6712 69.3774 50.423 69.5015 50.1748Z" fill="white"/>
<path d="M85.2635 35.7782C86.1322 35.53 86.8769 35.6541 87.4974 36.3988C87.7457 36.647 87.8698 37.0193 87.8698 37.3916C87.8698 37.764 87.8698 38.1363 87.6216 38.5086C87.3733 39.1292 87.1251 39.7497 86.8769 40.3703C86.6287 40.9908 86.3805 41.6114 86.2563 42.2319C86.1322 42.4801 86.0081 42.7284 85.7599 43.1007C85.5117 43.473 85.3876 43.8453 85.2635 43.9695V44.8382C85.1394 44.8382 84.8911 44.8382 84.767 44.8382C84.6429 44.8382 84.5188 44.8382 84.3947 44.7141C83.7742 44.4659 83.2777 44.2177 83.1536 43.9695C83.0295 43.5971 83.0295 43.1007 83.1536 42.4801C83.4018 41.8596 83.5259 41.239 83.7742 40.6185C84.0224 39.9979 84.2706 39.3774 84.3947 38.7568L84.767 37.6399C84.5188 37.764 84.2706 37.8881 84.1465 38.0122C84.0224 38.1363 83.8983 38.3845 83.7742 38.5086C83.0295 39.6256 82.4089 40.7426 81.7884 41.9837C81.1678 43.2248 80.7955 44.4659 80.4232 45.707C80.175 46.4516 79.9267 47.1963 79.6785 47.8169C79.4303 48.5615 79.1821 49.1821 78.9339 49.9267C78.8098 50.1749 78.6856 50.5473 78.8098 50.7955C78.8098 51.0437 78.9339 51.416 79.1821 51.6643C78.6856 51.9125 78.3133 52.1607 77.8169 52.1607C77.3204 52.1607 76.9481 52.1607 76.5758 51.9125C76.2035 51.7884 75.8311 51.416 75.5829 51.0437C75.3347 50.6714 75.2106 50.1749 75.2106 49.6785C75.2106 49.3062 75.2106 48.8097 75.3347 48.4374C75.4588 48.0651 75.4588 47.5686 75.5829 47.1963L75.707 45.8311C75.8311 45.2106 75.8311 44.7141 75.9552 44.3418C75.9552 43.9695 76.0793 43.473 76.0793 43.1007C76.0793 42.7284 76.2035 42.2319 76.2035 41.7355C76.3276 41.239 76.3276 40.7426 76.4517 40.122C76.4517 39.2533 76.5758 38.5086 76.824 37.6399C77.0722 36.7711 77.1963 36.0264 77.4446 35.1577C77.5687 34.6612 77.6928 34.413 77.941 34.2889C78.0651 34.1648 78.4374 34.1648 79.058 34.2889C79.5544 34.413 79.8026 34.413 80.0509 34.5371C80.2991 34.6612 80.5473 34.7853 80.7955 35.0335C80.4232 36.3988 80.0509 37.764 79.8026 39.1292C79.5544 40.4944 79.5544 41.8596 79.8026 43.3489L81.4161 40.7426C81.9125 39.9979 82.2848 39.2533 82.6572 38.5086C83.0295 37.764 83.65 37.1434 84.2706 36.647C84.3947 36.5229 84.6429 36.3988 84.8911 36.2746C84.767 36.0264 85.0152 35.9023 85.2635 35.7782Z" fill="white"/>
<path d="M98.1709 49.4302C98.6673 49.0579 99.2879 48.4374 99.9084 47.8168C100.529 47.0722 101.025 46.4516 101.522 45.8311C101.522 46.948 101.398 47.8168 101.15 48.5615C100.901 49.3061 100.529 49.9267 100.157 50.299C99.412 50.9196 98.6673 51.1678 98.0468 51.0437C97.4262 50.9196 96.6815 50.5472 96.061 49.9267C95.6887 49.6785 95.5646 49.4302 95.5646 49.0579C95.4404 48.4374 95.3163 47.6927 95.3163 47.0722C95.1922 46.4516 95.4404 45.8311 95.6887 45.2105L96.8057 42.9765C96.9298 42.6042 97.178 42.1078 97.178 41.6113C97.3021 41.1149 97.3021 40.6184 97.178 39.9979C96.9298 40.2461 96.8057 40.3702 96.6815 40.4943C96.5574 40.6184 96.4333 40.7426 96.3092 40.8667C95.4404 42.2319 94.4476 43.7212 93.5788 45.0864C92.71 46.4516 91.8413 47.9409 91.2207 49.5544C91.0966 49.8026 90.9725 49.9267 90.8484 50.1749C90.7243 50.4231 90.6002 50.5472 90.4761 50.7955C89.7314 50.7955 89.1108 50.6713 88.6144 50.1749C88.118 49.8026 87.8698 49.182 87.8698 48.5615C87.8698 48.065 87.8697 47.4445 87.9939 46.5757C88.118 45.7069 88.118 44.8382 88.2421 43.9694C88.3662 42.9765 88.4903 41.8595 88.6144 40.7426C88.7385 40.6184 88.8626 40.4943 88.8626 40.3702C88.8626 40.2461 88.8626 39.9979 88.8626 39.8738C88.8626 39.7497 88.8626 39.6256 88.8626 39.3773C88.8626 39.1291 88.8626 39.005 88.8626 38.7568C88.8626 38.6327 88.9867 38.3845 88.9867 38.2604C88.9867 38.1362 89.1108 38.0121 89.1108 37.888C89.1108 37.888 89.3591 37.7639 89.4832 37.7639C89.7314 37.7639 89.9796 37.7639 90.2278 37.888C90.4761 38.0121 90.7243 38.0121 90.9725 38.1362C91.2207 38.2604 91.3448 38.3845 91.3448 38.6327L91.4689 40.122C91.3448 40.4943 91.3448 40.7426 91.3448 41.1149C91.3448 41.4872 91.3448 41.8595 91.3448 42.2319C91.3448 42.6042 91.2207 42.8524 91.2207 43.1006C91.0966 43.3489 91.0966 43.7212 91.0966 43.9694L91.3448 44.0935C91.4689 43.9694 91.593 43.8453 91.7172 43.8453C91.8413 43.7212 91.9654 43.7212 91.9654 43.5971C92.5859 42.7283 93.2065 41.8595 93.9511 40.9908C94.6958 40.2461 95.4404 39.5015 96.3092 38.7568C96.6815 38.3845 97.0539 38.2604 97.5503 38.1362C97.9226 38.0121 98.1709 38.1362 98.4191 38.2604C98.6673 38.3845 98.9155 38.6327 99.1637 39.005C99.412 39.3773 99.6602 39.7497 99.6602 40.122C99.7843 40.4943 99.6602 40.8667 99.6602 41.3631C99.412 42.356 99.2879 43.2248 99.1637 44.2176C99.0396 45.2105 98.7914 46.2034 98.4191 47.0722C98.295 47.3204 98.1709 47.6927 98.1709 48.065C97.5503 48.6856 97.6744 49.0579 98.1709 49.4302Z" fill="white"/>
<path d="M110.334 36.8949C110.954 37.0191 111.202 37.3914 111.078 37.8878C111.078 38.0119 110.954 38.136 110.954 38.2602C110.954 38.3843 110.83 38.5084 110.83 38.6325C110.21 39.6254 109.589 40.6182 108.844 41.487C108.1 42.3558 107.231 43.2245 106.238 44.0933C105.866 44.4656 105.617 44.7139 105.245 45.0862C104.873 45.4585 104.625 45.8309 104.376 46.2032C104.252 46.4514 104.128 46.6996 104.128 47.072C104.128 47.3202 104.128 47.6925 104.128 47.9407C104.128 48.4372 104.252 48.8095 104.625 49.43C104.997 49.9265 105.369 50.2988 105.866 50.6711C106.114 50.547 106.362 50.2988 106.734 50.0506C107.107 49.8024 107.355 49.5541 107.603 49.43C108.472 48.6854 109.217 47.9407 110.085 47.4443C110.954 46.8237 111.575 46.3273 111.947 45.955C111.947 46.2032 111.823 46.5755 111.699 46.8237C111.699 47.072 111.575 47.3202 111.451 47.5684C111.327 47.8166 111.202 48.0648 111.078 48.3131C110.706 48.9336 110.21 49.5541 109.589 50.0506C108.968 50.547 108.348 51.0435 107.603 51.5399C107.107 51.9122 106.734 52.0363 106.238 52.0363C105.742 52.0363 105.245 51.9122 104.625 51.7881C103.756 51.5399 102.887 51.1676 102.142 50.547C101.398 49.9265 100.901 49.1818 100.529 48.4372C100.529 48.3131 100.405 48.1889 100.405 48.0648C100.405 47.9407 100.405 47.8166 100.281 47.5684C100.281 47.3202 100.281 47.072 100.157 46.8237C100.157 46.5755 100.157 46.3273 100.157 45.955C100.157 45.7067 100.157 45.3344 100.281 44.9621C100.281 44.5898 100.405 44.2174 100.653 43.721C100.901 42.8522 101.15 42.1076 101.522 41.3629C101.894 40.6182 102.266 39.7495 102.639 39.0048C102.763 38.7566 102.887 38.3843 103.135 38.136C103.259 37.8878 103.508 37.5155 103.632 37.2673C103.756 37.1432 103.88 37.0191 104.004 36.7708C104.128 36.6467 104.252 36.5226 104.376 36.3985C104.873 35.9021 105.617 35.6538 106.486 35.9021C106.734 35.9021 106.859 36.0262 107.107 36.0262C107.355 36.0262 107.603 36.0262 107.851 36.1503C108.224 36.1503 108.472 36.2744 108.596 36.3985C109.093 36.3985 109.713 36.6467 110.334 36.8949ZM105.121 41.9834C106.983 40.1218 108.1 38.6325 108.596 37.3914C108.1 37.2673 107.727 37.1432 107.603 37.1432C107.479 37.1432 107.231 37.2673 106.983 37.6396C106.362 38.2602 105.99 38.8807 105.617 39.5013C105.245 40.1218 104.997 40.8665 104.873 41.6111V41.7352C104.997 41.8593 105.121 41.9834 105.121 41.9834Z" fill="white"/>
<path d="M119.146 47.072C119.27 47.1962 119.394 47.1962 119.518 47.1962C119.642 47.1962 119.89 47.1962 120.014 47.072C120.138 46.9479 120.387 46.8238 120.511 46.6997C120.759 46.5756 120.883 46.4515 121.131 46.2033C121.38 46.0792 121.628 45.8309 122 45.7068C122 45.9551 121.876 46.3274 121.752 46.6997C121.628 47.072 121.38 47.3203 120.883 47.6926C120.511 48.0649 120.138 48.3131 119.89 48.4373C119.642 48.5614 119.27 48.5614 118.773 48.4373H118.649C118.525 48.6855 118.525 49.0578 118.401 49.306C118.277 49.5542 118.277 49.8025 118.029 50.1748C117.78 50.6712 117.532 51.1677 117.16 51.6641C116.787 52.1606 116.291 52.2847 115.546 52.4088C114.429 52.4088 113.312 52.0364 112.195 51.2918C111.823 51.0436 111.575 50.7953 111.451 50.423C111.327 50.0507 111.203 49.6784 111.203 49.306V45.5827C111.203 45.4586 111.203 45.3345 111.203 45.2104C111.203 45.0863 111.203 44.9622 111.203 44.8381L111.451 42.3559C111.699 41.1148 111.947 39.9978 112.32 38.8808C112.692 37.7638 113.064 36.6468 113.561 35.5298L113.933 34.9093C114.305 34.1646 114.926 33.9164 115.795 34.1646C116.291 34.2887 116.787 34.4128 117.284 34.5369C117.78 34.6611 118.277 34.7852 118.773 34.9093V35.0334V35.1575C118.401 35.4057 118.153 35.5298 117.78 35.778C117.408 35.9022 117.16 36.1504 116.912 36.3986C116.663 36.6468 116.415 36.895 116.291 37.2674C116.167 37.6397 116.043 38.012 116.167 38.3844C116.787 38.5085 117.408 38.6326 118.029 38.7567C118.649 38.8808 119.27 39.0049 119.89 39.0049L120.635 42.2318C120.635 42.48 120.635 42.7282 120.511 42.9764C120.387 43.2246 120.387 43.3487 120.263 43.597C120.138 43.8452 120.014 44.0934 119.89 44.3416C119.766 44.5898 119.642 44.9622 119.518 45.4586L119.146 47.072ZM116.167 50.1748C116.415 49.5542 116.663 48.9337 116.912 48.3131C117.16 47.6926 117.284 47.072 117.532 46.4515L117.408 45.9551C117.284 45.4586 117.16 44.8381 117.16 43.9693C117.16 43.1005 117.16 42.2318 117.284 41.363C117.036 40.9907 116.787 40.6183 116.539 40.246C116.415 39.8737 116.291 39.3772 116.291 38.8808C116.167 38.8808 116.043 38.8808 115.919 38.8808C115.919 39.0049 115.795 39.0049 115.795 39.129C115.795 39.2531 115.67 39.2531 115.67 39.3772C115.174 40.7424 114.802 42.2318 114.553 43.7211C114.429 44.9622 114.181 46.4515 114.181 48.0649C114.181 48.4373 114.181 48.8096 114.181 49.1819C114.181 49.5542 114.305 49.9266 114.429 50.2989C114.429 50.423 114.553 50.5471 114.678 50.6712C114.802 50.7953 114.926 50.9195 115.05 51.0436C115.174 51.0436 115.298 51.0436 115.422 51.0436C115.546 50.9195 115.67 50.9195 115.795 50.7953C115.919 50.6712 116.043 50.423 116.167 50.1748Z" fill="white"/>
<path d="M14.3968 61.4689C14.3968 61.593 14.3968 61.593 14.3968 61.4689C14.2727 61.593 14.2727 61.593 14.2727 61.593H14.1486C14.0245 61.593 14.0245 61.593 13.9004 61.593H13.7763L12.1628 59.359V61.593C12.1628 61.593 12.1628 61.593 12.0387 61.593H11.9146H11.7905H11.6664V57.3733C11.6664 57.3733 11.6664 57.3733 11.7905 57.3733H11.9146H12.0387H12.1628V59.359L13.6521 57.3733C13.6521 57.3733 13.6521 57.3733 13.7763 57.3733C13.7763 57.3733 13.7762 57.3733 13.9004 57.3733H14.0245H14.1486H14.2727C14.2727 57.3733 14.2727 57.3733 14.2727 57.4974C14.2727 57.4974 14.2727 57.6215 14.1486 57.6215L12.6593 59.359L14.2727 61.4689C14.3968 61.3448 14.3968 61.4689 14.3968 61.4689Z" fill="white"/>
<path d="M18.4924 61.3447C18.4924 61.4688 18.4924 61.4688 18.4924 61.3447C18.4924 61.4688 18.4924 61.4688 18.4924 61.593C18.4924 61.593 18.4924 61.593 18.3683 61.593H18.2442C18.12 61.593 18.12 61.593 18.12 61.593H17.9959L17.6236 60.476H15.762L15.3896 61.4688C15.3896 61.4688 15.3896 61.4688 15.2655 61.4688H15.1414C15.0173 61.4688 15.0173 61.4688 15.0173 61.4688H14.8932C14.8932 61.4688 14.8932 61.4688 14.8932 61.3447V61.2206L16.3825 57.125C16.3825 57.125 16.3825 57.125 16.5066 57.125H16.6307H16.7548C16.8789 57.125 16.8789 57.125 16.8789 57.125H17.0031C17.0031 57.125 17.0031 57.125 17.1272 57.125C17.1272 57.125 17.1272 57.125 17.1272 57.2491L18.4924 61.3447ZM16.5066 57.7455L15.762 59.9795H17.3754L16.5066 57.7455Z" fill="white"/>
<path d="M21.471 61.3448C21.471 61.4689 21.471 61.4689 21.471 61.593H19.4853H19.3612L19.2371 61.4689V57.3733C19.2371 57.3733 19.2371 57.3733 19.3612 57.3733H19.4853H19.6094H19.7335V61.0966H21.3469C21.471 61.0966 21.471 61.2207 21.471 61.3448Z" fill="white"/>
<path d="M22.7121 61.4689C22.588 61.593 22.7121 61.593 22.7121 61.4689C22.588 61.593 22.588 61.593 22.588 61.593H22.4639H22.3398H22.2157V57.3733C22.2157 57.3733 22.2157 57.3733 22.3398 57.3733H22.4639H22.588H22.7121V61.4689Z" fill="white"/>
<path d="M28.5452 61.4689C28.5452 61.593 28.5452 61.593 28.5452 61.4689C28.4211 61.593 28.4211 61.593 28.4211 61.593H28.297H28.1729H28.0488V57.7456L26.5595 61.593C26.5595 61.593 26.5595 61.593 26.4354 61.593H26.3112H26.1871C26.1871 61.593 26.1871 61.593 26.063 61.593L24.5737 57.7456V61.593C24.5737 61.593 24.5737 61.593 24.4496 61.593H24.3255H24.2014H24.0773V57.6215C24.0773 57.4974 24.0773 57.4974 24.2014 57.3733H24.3255H24.6978C24.8219 57.3733 24.8219 57.3733 24.946 57.3733C24.946 57.3733 25.0702 57.3733 25.0702 57.4974C24.8219 57.3733 24.8219 57.3733 24.8219 57.3733C24.8219 57.3733 24.8219 57.4974 24.946 57.4974L26.1871 60.7243L27.4282 57.6215C27.4282 57.4974 27.4282 57.4974 27.5523 57.4974L27.6765 57.3733H27.8006H27.9247H28.297H28.4211C28.4211 57.3733 28.4211 57.3733 28.5452 57.3733C28.5452 57.3733 28.5452 57.3733 28.5452 57.4974V57.6215V61.4689Z" fill="white"/>
<path d="M33.0132 61.3447C33.0132 61.4688 33.1374 61.4688 33.0132 61.3447C33.0132 61.4688 33.0132 61.4688 33.0132 61.593C33.0132 61.593 33.0132 61.593 32.8891 61.593H32.765C32.6409 61.593 32.6409 61.593 32.6409 61.593H32.5168L32.1445 60.476H30.2828L29.9105 61.4688C29.9105 61.4688 29.9105 61.4688 29.7864 61.4688H29.6623C29.5382 61.4688 29.5382 61.4688 29.5382 61.4688H29.4141C29.4141 61.4688 29.4141 61.4688 29.4141 61.3447V61.2206L30.9034 57.125C30.9034 57.125 30.9034 57.125 31.0275 57.125H31.1516H31.2757C31.3998 57.125 31.3998 57.125 31.3998 57.125H31.5239C31.5239 57.125 31.5239 57.125 31.648 57.125C31.648 57.125 31.648 57.125 31.648 57.2491L33.0132 61.3447ZM31.1516 57.7455L30.4069 59.9795H31.8963L31.1516 57.7455Z" fill="white"/>
<path d="M37.1089 61.3447C37.1089 61.4688 37.1089 61.4688 36.9848 61.593C36.9848 61.593 36.9848 61.593 36.8607 61.593C36.7366 61.593 36.8607 61.593 36.7366 61.593H36.4884H36.3642C36.3642 61.593 36.2401 61.593 36.2401 61.4688L36.116 61.3447C36.116 61.3447 35.9919 61.2206 35.9919 61.0965L34.7508 58.6143C34.6267 58.4902 34.6267 58.3661 34.5026 58.242C34.3785 58.1179 34.3785 57.9938 34.2544 57.8697C34.2544 57.9938 34.2544 58.242 34.2544 58.3661C34.2544 58.4902 34.2544 58.7384 34.2544 58.8625V61.4688C34.2544 61.4688 34.2544 61.4688 34.1303 61.4688H34.0062H33.882H33.7579V57.3732C33.7579 57.2491 33.7579 57.2491 33.882 57.125H34.0062H34.2544C34.3785 57.125 34.3785 57.125 34.3785 57.125H34.5026C34.5026 57.125 34.6267 57.125 34.6267 57.2491L34.7508 57.3732L35.7437 59.2349C35.8678 59.359 35.8678 59.4831 35.8678 59.6072C35.8678 59.7313 35.9919 59.8554 35.9919 59.9795C35.9919 60.1036 36.116 60.2277 36.116 60.3519C36.116 60.476 36.2401 60.6001 36.2401 60.7242C36.2401 60.6001 36.2401 60.3519 36.2401 60.2277C36.2401 59.9795 36.2401 59.8554 36.2401 59.7313V57.3732C36.2401 57.3732 36.2401 57.3732 36.3642 57.3732H36.4884H36.6125H36.7366V61.3447H37.1089Z" fill="white"/>
<path d="M40.9563 57.4972C40.9563 57.6213 40.9563 57.6214 40.9563 57.7455H39.7152V61.5929C39.7152 61.5929 39.7152 61.5929 39.5911 61.5929H39.467H39.3429H39.2188V57.7455H37.9777C37.9777 57.7455 37.9777 57.7455 37.9777 57.6214V57.4972V57.3731C37.9777 57.3731 37.9777 57.3731 37.9777 57.249H41.0804C40.9563 57.249 40.9563 57.249 40.9563 57.4972C40.9563 57.3731 40.9563 57.3731 40.9563 57.4972Z" fill="white"/>
<path d="M44.4313 61.3447C44.4313 61.4688 44.4313 61.4688 44.4313 61.3447C44.4313 61.4688 44.4313 61.4688 44.4313 61.593C44.4313 61.593 44.4313 61.593 44.3072 61.593H44.1831C44.059 61.593 44.059 61.593 44.059 61.593H43.9349L43.4384 60.476H41.5768L41.2044 61.4688C41.2044 61.4688 41.2044 61.4688 41.0803 61.4688H40.9562C40.8321 61.4688 40.8321 61.4688 40.8321 61.4688H40.708C40.708 61.4688 40.708 61.4688 40.708 61.3447V61.2206L42.1973 57.125C42.1973 57.125 42.1973 57.125 42.3214 57.125H42.4455H42.5697C42.6938 57.125 42.6938 57.125 42.6938 57.125H42.8179C42.8179 57.125 42.8179 57.125 42.942 57.125C42.942 57.125 42.942 57.125 42.942 57.2491L44.4313 61.3447ZM42.4455 57.7455L41.7009 59.9795H43.1902L42.4455 57.7455Z" fill="white"/>
<path d="M48.4028 61.3447C48.4028 61.4688 48.4028 61.4688 48.2787 61.593C48.2787 61.593 48.2787 61.593 48.1546 61.593C48.1546 61.593 48.1546 61.593 48.0305 61.593H47.7823H47.6582C47.6582 61.593 47.534 61.593 47.534 61.4688L47.4099 61.3447C47.4099 61.3447 47.2858 61.2206 47.2858 61.0965L45.9206 58.6143C45.7965 58.4902 45.7965 58.3661 45.6724 58.242C45.5483 58.1179 45.5483 57.9938 45.4242 57.8697C45.4242 57.9938 45.4242 58.242 45.4242 58.3661C45.4242 58.4902 45.4242 58.7384 45.4242 58.8625V61.4688C45.4242 61.4688 45.4242 61.4688 45.3001 61.4688H45.176H45.0518H44.9277V57.3732C44.9277 57.2491 44.9277 57.2491 45.0518 57.125H45.176H45.4242C45.5483 57.125 45.5483 57.125 45.5483 57.125H45.6724C45.6724 57.125 45.7965 57.125 45.7965 57.2491L45.9206 57.3732L46.9135 59.2349C47.0376 59.359 47.0376 59.4831 47.0376 59.6072C47.0376 59.7313 47.1617 59.8554 47.1617 59.9795C47.1617 60.1036 47.2858 60.2277 47.2858 60.3519C47.2858 60.476 47.4099 60.6001 47.4099 60.7242C47.4099 60.6001 47.4099 60.3519 47.4099 60.2277C47.4099 59.9795 47.4099 59.8554 47.4099 59.7313V57.3732C47.4099 57.3732 47.4099 57.3732 47.534 57.3732H47.6582H47.7823H47.9064V61.3447H48.4028Z" fill="white"/>
<path d="M53.8636 57.4972C53.8636 57.6213 53.8636 57.6214 53.8636 57.7455H52.6225V61.5929C52.6225 61.5929 52.6225 61.5929 52.4984 61.5929H52.3743H52.2502H52.1261V57.7455H50.885C50.885 57.7455 50.885 57.7455 50.885 57.6214V57.4972V57.3731C50.885 57.3731 50.885 57.3731 50.885 57.249H53.9878C53.8636 57.249 53.8636 57.249 53.8636 57.4972C53.8636 57.3731 53.8636 57.3731 53.8636 57.4972Z" fill="white"/>
<path d="M57.9593 59.359C57.9593 59.7313 57.9593 59.9795 57.8352 60.3519C57.7111 60.6001 57.587 60.8483 57.4629 61.0965C57.3388 61.3447 57.0905 61.4688 56.8423 61.593C56.5941 61.7171 56.3459 61.7171 55.9735 61.7171C55.6012 61.7171 55.353 61.7171 55.1048 61.593C54.8566 61.4688 54.6083 61.3447 54.4842 61.2206C54.3601 60.9724 54.236 60.8483 54.1119 60.476C53.9878 60.2277 53.9878 59.8554 53.9878 59.4831C53.9878 59.1108 53.9878 58.8625 54.1119 58.4902C54.236 58.242 54.3601 57.9938 54.4842 57.7455C54.6083 57.4973 54.8566 57.3732 55.1048 57.2491C55.353 57.125 55.6012 57.125 55.9735 57.125C56.3459 57.125 56.5941 57.125 56.8423 57.2491C57.0905 57.3732 57.3388 57.4973 57.4629 57.6214C57.587 57.7456 57.7111 57.9938 57.8352 58.3661C57.9593 58.6143 57.9593 58.9866 57.9593 59.359ZM57.3388 59.359C57.3388 59.1108 57.3388 58.8625 57.2146 58.6143C57.2146 58.3661 57.0905 58.242 56.9664 58.1179C56.8423 57.9938 56.7182 57.8697 56.5941 57.7455C56.47 57.6214 56.2218 57.6214 55.9735 57.6214C55.7253 57.6214 55.4771 57.6214 55.353 57.7455C55.2289 57.8697 55.1048 57.9938 54.9807 58.1179C54.8566 58.242 54.8566 58.4902 54.7325 58.6143C54.7325 58.8625 54.6083 58.9866 54.6083 59.2349C54.6083 59.4831 54.6083 59.7313 54.7325 59.9795C54.7325 60.2277 54.8566 60.3519 54.9807 60.6001C55.1048 60.7242 55.2289 60.8483 55.353 60.9724C55.4771 61.0965 55.7253 61.0965 55.9735 61.0965C56.2218 61.0965 56.47 61.0965 56.5941 60.9724C56.7182 60.8483 56.9664 60.7242 56.9664 60.6001C57.0905 60.476 57.0905 60.2277 57.2146 59.9795C57.3388 59.8554 57.3388 59.6072 57.3388 59.359Z" fill="white"/>
<path d="M62.1791 59.9794C62.1791 60.2277 62.1791 60.4759 62.055 60.7241C61.9309 60.9723 61.8068 61.0964 61.6827 61.2205C61.5585 61.3446 61.3103 61.4688 61.1862 61.5929C60.938 61.717 60.6898 61.717 60.4416 61.717C60.1933 61.717 59.9451 61.717 59.821 61.5929C59.5728 61.4688 59.4487 61.4688 59.3246 61.3446C59.2005 61.2205 59.0763 61.0964 58.9522 60.8482C58.8281 60.6 58.8281 60.3518 58.8281 60.1035V57.3731C58.8281 57.3731 58.8281 57.3731 58.9522 57.3731H59.0763H59.2005H59.3246V59.9794C59.3246 60.2277 59.3246 60.3518 59.4487 60.4759C59.4487 60.6 59.5728 60.7241 59.6969 60.8482C59.821 60.9723 59.9451 60.9723 60.0692 61.0964C60.1933 61.0964 60.3174 61.2205 60.5657 61.2205C60.6898 61.2205 60.938 61.2205 61.0621 61.0964C61.1862 61.0964 61.3103 60.9723 61.4344 60.8482C61.5585 60.7241 61.5585 60.6 61.6827 60.4759C61.6827 60.3518 61.8068 60.1035 61.8068 59.9794V57.249C61.8068 57.249 61.8068 57.249 61.9309 57.249H62.055H62.1791H62.3032V59.9794H62.1791Z" fill="white"/>
<path d="M66.2748 61.4689C66.2748 61.593 66.2748 61.593 66.2748 61.4689C66.1507 61.593 66.1507 61.593 66.1507 61.593H66.0265H65.9024H65.7783C65.7783 61.593 65.7783 61.593 65.7783 61.4689L65.406 60.476C65.406 60.3519 65.2819 60.2278 65.2819 60.1037C65.2819 59.9796 65.1578 59.9796 65.1578 59.8555C65.0337 59.7314 65.0337 59.7314 64.9096 59.7314C64.7854 59.7314 64.6613 59.7314 64.5372 59.7314H64.1649V61.593C64.1649 61.593 64.1649 61.593 64.0408 61.593H63.9167H63.7926H63.6685V57.4974C63.6685 57.3733 63.6685 57.3733 63.7926 57.3733H63.9167H64.5372C64.6613 57.3733 64.7854 57.3733 64.7854 57.3733C64.9096 57.3733 64.9096 57.3733 65.0337 57.3733C65.1578 57.3733 65.406 57.4974 65.5301 57.4974C65.6542 57.6215 65.7783 57.6215 65.9024 57.7456C66.0265 57.8697 66.0265 57.9938 66.1507 58.1179C66.1507 58.2421 66.2748 58.3662 66.2748 58.4903C66.2748 58.6144 66.2748 58.7385 66.2748 58.8626C66.2748 58.9867 66.1507 59.1108 66.1507 59.1108C66.0265 59.2349 66.0265 59.2349 65.9024 59.359C65.7783 59.4832 65.6542 59.4832 65.5301 59.4832C65.6542 59.4832 65.6542 59.6073 65.7783 59.6073L65.9024 59.7314C65.9024 59.8555 66.0265 59.8555 66.0265 59.9796C66.0265 60.1037 66.1507 60.2278 66.1507 60.2278L66.523 61.2207C66.2748 61.3448 66.2748 61.3448 66.2748 61.4689ZM65.406 58.3662C65.406 58.2421 65.406 57.9938 65.2819 57.8697C65.1578 57.7456 65.0337 57.6215 64.9096 57.6215C64.9096 57.6215 64.7854 57.6215 64.6613 57.6215C64.5372 57.6215 64.5372 57.6215 64.4131 57.6215H63.9167V59.1108H64.5372C64.6613 59.1108 64.7854 59.1108 64.9096 59.1108C65.0337 59.1108 65.1578 58.9867 65.1578 58.9867C65.2819 58.8626 65.2819 58.8626 65.2819 58.7385C65.406 58.6144 65.406 58.4903 65.406 58.3662Z" fill="white"/>
<path d="M72.1078 59.359C72.1078 59.7313 72.1078 60.1036 71.9837 60.3518C71.8596 60.6001 71.7355 60.8483 71.6114 61.0965C71.4873 61.2206 71.239 61.4688 70.8667 61.4688C70.6185 61.5929 70.2462 61.5929 69.8738 61.5929H69.0051H68.8809L68.7568 61.4688V57.6214C68.7568 57.4973 68.7568 57.4973 68.8809 57.4973H69.0051H69.9979C70.3703 57.4973 70.7426 57.4973 70.9908 57.6214C71.239 57.7455 71.4873 57.8696 71.6114 57.9938C71.7355 58.1179 71.9837 58.3661 71.9837 58.6143C71.9837 58.7384 72.1078 58.9866 72.1078 59.359ZM71.4872 59.359C71.4872 59.1107 71.4873 58.8625 71.3631 58.7384C71.3631 58.4902 71.239 58.3661 71.1149 58.242C70.9908 58.1179 70.8667 57.9938 70.6185 57.8696C70.3703 57.7455 70.122 57.7455 69.8738 57.7455H69.2533V61.0965H69.8738C70.122 61.0965 70.3703 61.0965 70.6185 60.9724C70.8667 60.8483 70.9908 60.8483 71.1149 60.6001C71.239 60.476 71.3631 60.2277 71.3631 60.1036C71.4873 59.8554 71.4872 59.6072 71.4872 59.359Z" fill="white"/>
<path d="M75.4588 61.3448C75.4588 61.4689 75.4588 61.4689 75.4588 61.4689H73.2248H73.1007L72.9766 61.3448V57.4974C72.9766 57.3733 72.9766 57.3733 73.1007 57.3733H73.2248H75.3347C75.3347 57.3733 75.3347 57.3733 75.3347 57.4974V57.6215V57.7456C75.3347 57.7456 75.3347 57.7456 75.3347 57.8697H73.5971V59.2349H75.0864C75.0864 59.2349 75.0864 59.2349 75.0864 59.359V59.4832V59.6073C75.0864 59.6073 75.0864 59.6073 75.0864 59.7314H73.5971V61.0966H75.3347C75.4588 61.2207 75.4588 61.2207 75.4588 61.3448Z" fill="white"/>
<path d="M78.6857 60.3518C78.6857 60.6 78.6857 60.7241 78.5616 60.8482C78.4374 60.9723 78.4374 61.0964 78.1892 61.2206C78.0651 61.3447 77.941 61.4688 77.6928 61.4688C77.5687 61.4688 77.3205 61.5929 77.0722 61.5929C76.9481 61.5929 76.824 61.5929 76.6999 61.5929C76.5758 61.5929 76.4517 61.5929 76.3276 61.4688C76.2035 61.4688 76.2035 61.3447 76.0794 61.3447C75.9553 61.3447 75.9553 61.2206 75.9553 61.2206C75.9553 61.2206 75.9553 61.2206 75.9553 61.0964V60.9723V60.8482C75.9553 60.8482 75.9553 60.8482 75.9553 60.7241H76.0794C76.0794 60.7241 76.2035 60.8482 76.3276 60.8482C76.4517 60.8482 76.5758 60.9723 76.6999 60.9723C76.824 60.9723 76.9481 60.9723 77.1964 60.9723C77.3205 60.9723 77.4446 60.9723 77.5687 60.9723C77.6928 60.9723 77.8169 60.8482 77.8169 60.8482C77.941 60.7241 77.941 60.7241 77.941 60.6C77.941 60.4759 77.941 60.3518 77.941 60.3518C77.941 60.2277 77.941 60.1036 77.8169 59.9795C77.8169 59.8553 77.6928 59.8554 77.5687 59.7312C77.4446 59.6071 77.3205 59.6071 77.1964 59.6071C77.0722 59.6071 76.9481 59.483 76.824 59.483C76.6999 59.483 76.5758 59.3589 76.4517 59.2348C76.3276 59.1107 76.2035 59.1107 76.0794 58.9866C75.9553 58.8625 75.9552 58.7384 75.8311 58.6142C75.8311 58.4901 75.707 58.366 75.707 58.1178C75.707 57.9937 75.707 57.7455 75.8311 57.6214C75.9552 57.4973 75.9553 57.3732 76.0794 57.249C76.2035 57.1249 76.3276 57.1249 76.4517 57.0008C76.5758 57.0008 76.824 56.8767 76.9481 56.8767C77.0722 56.8767 77.1964 56.8767 77.1964 56.8767C77.3205 56.8767 77.4446 56.8767 77.4446 57.0008C77.5687 57.0008 77.5687 57.0008 77.6928 57.1249C77.8169 57.1249 77.8169 57.249 77.8169 57.249C77.8169 57.249 77.8169 57.249 77.8169 57.3732C77.8169 57.3732 77.8169 57.3731 77.8169 57.4973V57.6214C77.8169 57.6214 77.8169 57.6214 77.8169 57.7455H77.6928C77.6928 57.7455 77.5687 57.6214 77.4446 57.6214C77.3205 57.6214 77.3205 57.4973 77.1964 57.4973C77.0722 57.4973 76.9481 57.4973 76.824 57.4973C76.6999 57.4973 76.5758 57.4973 76.4517 57.4973C76.3276 57.4973 76.3276 57.6214 76.2035 57.6214C76.2035 57.6214 76.0794 57.7455 76.0794 57.8696C76.0794 57.9937 76.0794 57.9937 76.0794 58.1178C76.0794 58.2419 76.0794 58.366 76.2035 58.4901C76.2035 58.6143 76.3276 58.6142 76.4517 58.7384C76.5758 58.8625 76.6999 58.8625 76.824 58.8625C76.9481 58.8625 77.0722 58.9866 77.1964 58.9866C77.3205 58.9866 77.4446 59.1107 77.5687 59.2348C77.6928 59.3589 77.8169 59.3589 77.941 59.483C78.0651 59.6071 78.0651 59.7312 78.1892 59.8553C78.6857 59.9795 78.6857 60.2277 78.6857 60.3518Z" fill="white"/>
<path d="M82.1608 57.4972C82.1608 57.6213 82.1608 57.6214 82.1608 57.7455H80.9197V61.5929C80.9197 61.5929 80.9197 61.5929 80.7956 61.5929H80.6714H80.5473H80.4232V57.7455H79.1821C79.1821 57.7455 79.1821 57.7455 79.1821 57.6214V57.4972V57.3731C79.1821 57.3731 79.1821 57.3731 79.1821 57.249H82.2849C82.1608 57.249 82.1608 57.249 82.1608 57.4972C82.1608 57.3731 82.1608 57.3731 82.1608 57.4972Z" fill="white"/>
<path d="M83.4018 61.4689C83.4018 61.593 83.4018 61.593 83.4018 61.4689C83.2777 61.593 83.2777 61.593 83.2777 61.593H83.1536H83.0295H82.9054V57.3733C82.9054 57.3733 82.9054 57.3733 83.0295 57.3733H83.1536H83.2777H83.4018V61.4689Z" fill="white"/>
<path d="M87.8699 61.3447C87.8699 61.4688 87.8698 61.4688 87.7457 61.593C87.7457 61.593 87.7457 61.593 87.6216 61.593C87.6216 61.593 87.6216 61.593 87.4975 61.593H87.2493H87.1252C87.1252 61.593 87.0011 61.593 87.0011 61.4688L86.877 61.3447C86.877 61.3447 86.7529 61.2206 86.7529 61.0965L85.3877 58.6143C85.2635 58.4902 85.2635 58.3661 85.1394 58.242C85.0153 58.1179 85.0153 57.9938 84.8912 57.8697C84.8912 57.9938 84.8912 58.242 84.8912 58.3661C84.8912 58.4902 84.8912 58.7384 84.8912 58.8625V61.4688C84.8912 61.4688 84.8912 61.4688 84.7671 61.4688H84.643H84.5189H84.3948V57.3732C84.3948 57.2491 84.3948 57.2491 84.5189 57.125H84.643H84.8912C85.0153 57.125 85.0153 57.125 85.0153 57.125H85.1394C85.1394 57.125 85.2635 57.125 85.2635 57.2491L85.3877 57.3732L86.3805 59.2349C86.5046 59.359 86.5046 59.4831 86.5046 59.6072C86.5046 59.7313 86.6288 59.8554 86.6288 59.9795C86.6288 60.1036 86.7529 60.2277 86.7529 60.3519C86.7529 60.476 86.877 60.6001 86.877 60.7242C86.877 60.6001 86.877 60.3519 86.877 60.2277C86.877 59.9795 86.877 59.8554 86.877 59.7313V57.3732C86.877 57.3732 86.877 57.3732 87.0011 57.3732H87.1252H87.2493H87.3734V61.3447H87.8699Z" fill="white"/>
<path d="M92.3377 61.3447C92.3377 61.4688 92.3377 61.4688 92.3377 61.3447C92.3377 61.4688 92.3377 61.4688 92.3377 61.593C92.3377 61.593 92.3377 61.593 92.2136 61.593H92.0895C91.9654 61.593 91.9654 61.593 91.9654 61.593H91.8413L91.4689 60.476H89.6073L89.235 61.4688C89.235 61.4688 89.235 61.4688 89.1109 61.4688H88.9867C88.8626 61.4688 88.8626 61.4688 88.8626 61.4688H88.7385C88.7385 61.4688 88.7385 61.4688 88.7385 61.3447V61.2206L90.2278 57.125C90.2278 57.125 90.2278 57.125 90.352 57.125H90.4761H90.6002C90.7243 57.125 90.7243 57.125 90.7243 57.125H90.8484C90.8484 57.125 90.8484 57.125 90.9725 57.125C90.9725 57.125 90.9725 57.125 90.9725 57.2491L92.3377 61.3447ZM90.4761 57.7455L89.7314 59.9795H91.2207L90.4761 57.7455Z" fill="white"/>
<path d="M95.3164 57.4972C95.3164 57.6213 95.3164 57.6214 95.3164 57.7455H94.0753V61.5929C94.0753 61.5929 94.0753 61.5929 93.9512 61.5929H93.8271H93.703H93.5789V57.7455H92.3378C92.3378 57.7455 92.3378 57.7455 92.3378 57.6214V57.4972V57.3731C92.3378 57.3731 92.3378 57.3731 92.3378 57.249H95.4405C95.1923 57.249 95.1923 57.249 95.3164 57.4972C95.3164 57.3731 95.3164 57.3731 95.3164 57.4972Z" fill="white"/>
<path d="M96.4333 61.4689C96.4333 61.593 96.4333 61.593 96.4333 61.4689C96.3092 61.593 96.3092 61.593 96.3092 61.593H96.1851H96.061H95.9369V57.3733C95.9369 57.3733 95.9369 57.3733 96.061 57.3733H96.1851H96.3092H96.4333V61.4689Z" fill="white"/>
<path d="M101.274 59.359C101.274 59.7313 101.274 59.9795 101.15 60.3519C101.025 60.6001 100.901 60.8483 100.777 61.0965C100.653 61.3447 100.405 61.4688 100.157 61.593C99.9084 61.7171 99.6602 61.7171 99.2879 61.7171C98.9156 61.7171 98.6673 61.7171 98.4191 61.593C98.1709 61.4688 97.9227 61.3447 97.7986 61.2206C97.6745 60.9724 97.5503 60.8483 97.4262 60.476C97.3021 60.2277 97.3021 59.8554 97.3021 59.4831C97.3021 59.1108 97.3021 58.8625 97.4262 58.4902C97.5503 58.242 97.6745 57.9938 97.7986 57.7455C97.9227 57.4973 98.1709 57.3732 98.4191 57.2491C98.6673 57.125 98.9156 57.125 99.2879 57.125C99.6602 57.125 99.9084 57.125 100.157 57.2491C100.405 57.3732 100.653 57.4973 100.777 57.6214C100.901 57.7456 101.025 57.9938 101.15 58.3661C101.274 58.6143 101.274 58.9866 101.274 59.359ZM100.653 59.359C100.653 59.1108 100.653 58.8625 100.529 58.6143C100.529 58.3661 100.405 58.242 100.281 58.1179C100.157 57.9938 100.033 57.8697 99.9084 57.7455C99.7843 57.6214 99.5361 57.6214 99.2879 57.6214C99.0397 57.6214 98.7914 57.6214 98.6673 57.7455C98.5432 57.8697 98.295 57.9938 98.295 58.1179C98.1709 58.242 98.1709 58.4902 98.0468 58.6143C98.0468 58.8625 97.9227 58.9866 97.9227 59.2349C97.9227 59.4831 97.9227 59.7313 98.0468 59.9795C98.0468 60.2277 98.1709 60.3519 98.295 60.6001C98.4191 60.7242 98.5432 60.8483 98.6673 60.9724C98.9156 61.0965 99.0397 61.0965 99.2879 61.0965C99.5361 61.0965 99.7843 61.0965 99.9084 60.9724C100.033 60.8483 100.281 60.7242 100.281 60.6001C100.405 60.476 100.405 60.2277 100.529 59.9795C100.653 59.8554 100.653 59.6072 100.653 59.359Z" fill="white"/>
<path d="M105.493 61.3447C105.493 61.4688 105.493 61.4688 105.369 61.593C105.369 61.593 105.369 61.593 105.245 61.593C105.245 61.593 105.245 61.593 105.121 61.593H104.873H104.749C104.749 61.593 104.625 61.593 104.625 61.4688L104.501 61.3447C104.501 61.3447 104.376 61.2206 104.376 61.0965L103.011 58.6143C102.887 58.4902 102.887 58.3661 102.763 58.242C102.639 58.1179 102.639 57.9938 102.515 57.8697C102.515 57.9938 102.515 58.242 102.515 58.3661C102.515 58.4902 102.515 58.7384 102.515 58.8625V61.4688C102.515 61.4688 102.515 61.4688 102.391 61.4688H102.267H102.142H102.018V57.3732C102.018 57.2491 102.018 57.2491 102.142 57.125H102.267H102.515C102.639 57.125 102.639 57.125 102.639 57.125H102.763C102.763 57.125 102.887 57.125 102.887 57.2491L103.011 57.3732L104.004 59.2349C104.128 59.359 104.128 59.4831 104.128 59.6072C104.128 59.7313 104.252 59.8554 104.252 59.9795C104.252 60.1036 104.376 60.2277 104.376 60.3519C104.376 60.476 104.501 60.6001 104.501 60.7242C104.501 60.6001 104.501 60.3519 104.501 60.2277C104.501 59.9795 104.501 59.8554 104.501 59.7313V57.3732C104.501 57.3732 104.501 57.3732 104.625 57.3732H104.749H104.873H104.997V61.3447H105.493Z" fill="white"/>
<path d="M109.093 60.3518C109.093 60.6 109.093 60.7241 108.968 60.8482C108.844 60.9723 108.844 61.0964 108.596 61.2206C108.472 61.3447 108.348 61.4688 108.1 61.4688C107.976 61.4688 107.727 61.5929 107.479 61.5929C107.355 61.5929 107.231 61.5929 107.107 61.5929C106.983 61.5929 106.859 61.5929 106.734 61.4688C106.61 61.4688 106.61 61.3447 106.486 61.3447C106.362 61.3447 106.362 61.2206 106.362 61.2206C106.362 61.2206 106.362 61.2206 106.362 61.0964V60.9723V60.8482C106.362 60.8482 106.362 60.8482 106.362 60.7241H106.486C106.486 60.7241 106.61 60.8482 106.734 60.8482C106.859 60.8482 106.983 60.9723 107.107 60.9723C107.231 60.9723 107.355 60.9723 107.603 60.9723C107.727 60.9723 107.851 60.9723 107.976 60.9723C108.1 60.9723 108.224 60.8482 108.224 60.8482C108.348 60.7241 108.348 60.7241 108.348 60.6C108.348 60.4759 108.348 60.3518 108.348 60.3518C108.348 60.2277 108.348 60.1036 108.224 59.9795C108.224 59.8553 108.1 59.8554 107.976 59.7312C107.851 59.6071 107.727 59.6071 107.603 59.6071C107.479 59.6071 107.355 59.483 107.231 59.483C107.107 59.483 106.983 59.3589 106.859 59.2348C106.734 59.1107 106.61 59.1107 106.486 58.9866C106.362 58.8625 106.362 58.7384 106.238 58.6142C106.238 58.4901 106.114 58.366 106.114 58.1178C106.114 57.9937 106.114 57.7455 106.238 57.6214C106.362 57.4973 106.362 57.3732 106.486 57.249C106.61 57.1249 106.734 57.1249 106.859 57.0008C106.983 57.0008 107.231 56.8767 107.355 56.8767C107.479 56.8767 107.603 56.8767 107.603 56.8767C107.727 56.8767 107.851 56.8767 107.851 57.0008C107.976 57.0008 107.976 57.0008 108.1 57.1249C108.224 57.1249 108.224 57.249 108.224 57.249C108.224 57.249 108.224 57.249 108.224 57.3732C108.224 57.3732 108.224 57.3731 108.224 57.4973V57.6214C108.224 57.6214 108.224 57.6214 108.224 57.7455H108.1C108.1 57.7455 107.976 57.6214 107.851 57.6214C107.727 57.6214 107.727 57.4973 107.603 57.4973C107.479 57.4973 107.355 57.4973 107.231 57.4973C107.107 57.4973 106.983 57.4973 106.859 57.4973C106.734 57.4973 106.734 57.6214 106.61 57.6214C106.61 57.6214 106.486 57.7455 106.486 57.8696C106.486 57.9937 106.486 57.9937 106.486 58.1178C106.486 58.2419 106.486 58.366 106.61 58.4901C106.61 58.6143 106.734 58.6142 106.859 58.7384C106.983 58.8625 107.107 58.8625 107.231 58.8625C107.355 58.8625 107.479 58.9866 107.603 58.9866C107.727 58.9866 107.851 59.1107 107.976 59.2348C108.1 59.3589 108.224 59.3589 108.348 59.483C108.472 59.6071 108.472 59.7312 108.596 59.8553C109.093 59.9795 109.093 60.2277 109.093 60.3518Z" fill="white"/>
<path fill-rule="evenodd" clip-rule="evenodd" d="M28.9175 5.37122C28.9175 5.37122 28.1729 3.26135 29.9104 3.26135C29.9104 3.26135 30.6551 1.15148 31.2756 1.3997C31.2756 1.3997 31.0274 2.6408 30.4069 3.38546C30.4069 3.38546 30.4069 4.00601 30.7792 4.25423C31.1515 4.50245 33.0132 7.10876 33.3855 12.0732L33.8819 16.0447C33.8819 16.0447 34.2543 16.5411 34.9989 16.1688C35.7436 15.9206 37.6052 15.1759 38.7222 15.4241L39.2187 15.3C39.2187 15.3 39.591 12.0732 41.9491 12.8178C41.9491 12.8178 43.3143 13.3143 43.0661 14.9277C43.0661 14.9277 44.6795 14.6795 45.6724 15.3C45.6724 15.3 48.0305 16.2929 48.2787 16.2929C48.651 16.2929 49.1475 15.6723 49.2716 14.9277L49.5198 14.183C49.5198 14.183 49.3957 10.2115 50.2644 8.59808C50.2644 8.59808 51.5055 5.61944 52.2502 5.49533L52.1261 0.282715L52.7466 0.779154L52.8707 1.3997L53.119 4.62656C53.119 4.62656 53.7395 4.62656 53.6154 5.37122C53.6154 5.37122 54.1118 6.73643 53.9877 7.35698L54.8565 8.8463L54.3601 9.59096L53.3672 7.6052C53.3672 7.6052 52.1261 8.10164 52.002 9.21863C52.002 9.21863 51.7538 14.183 51.7538 14.4312C51.7538 14.6795 51.7538 19.0233 49.5198 19.8921C49.5198 19.8921 48.8992 20.5126 48.2787 19.6439C48.2787 19.6439 47.7822 19.1474 47.2858 19.3956C47.2858 19.3956 47.2858 20.0162 46.9135 19.5197C46.9135 19.5197 46.7894 19.5197 46.6653 19.5197C46.5411 19.6439 46.5411 20.1403 46.1688 19.5197C46.1688 19.5197 45.0518 19.8921 45.0518 20.6367C45.0518 20.6367 44.9277 21.2573 45.0518 21.3814C45.1759 21.6296 45.9206 23.7395 45.6724 25.3529C45.6724 25.3529 45.6724 25.7252 46.0447 25.7252C46.417 25.7252 46.9135 26.594 46.7894 27.2146C46.6653 27.8351 46.9135 32.7995 46.6653 33.1718L46.417 34.2888C46.417 34.2888 46.2929 36.6469 46.417 37.0192C46.6653 37.5157 46.7894 38.7568 46.2929 38.6327C46.2929 38.6327 45.9206 39.5014 45.7965 38.7568C45.7965 38.7568 45.5483 38.2603 45.4242 38.5086C45.4242 38.5086 45.4242 39.3773 45.0518 39.3773C45.0518 39.3773 44.9277 39.5014 44.9277 38.5086L44.6795 37.6398C44.6795 37.6398 44.4313 37.1434 44.1831 37.6398C44.1831 37.6398 44.059 38.6327 43.8107 37.7639C43.8107 37.7639 43.5625 36.6469 44.3072 36.771V35.654L44.1831 30.0691C44.1831 30.0691 43.9348 29.945 43.9348 30.0691C43.8107 30.1932 43.0661 31.062 42.3214 31.062H41.0803C41.0803 31.062 40.9562 31.062 41.0803 31.4343C41.3285 31.8066 41.7009 32.6754 41.825 33.1718C41.825 33.6683 41.825 34.0406 41.9491 34.1647C42.0732 34.2888 42.4455 34.7853 42.5696 35.0335C42.5696 35.2817 42.6937 35.654 42.6937 35.7781C42.6937 35.9023 42.8179 36.2746 42.4455 36.0264C42.4455 36.0264 41.825 36.0264 42.0732 36.2746C42.3214 36.5228 42.6937 36.1505 42.6937 36.3987C42.6937 36.6469 42.8179 37.2675 42.5696 37.3916C42.5696 37.3916 41.9491 37.5157 41.4526 37.3916C41.0803 37.1434 40.3357 36.771 40.3357 36.3987C40.3357 35.9023 40.2115 34.2888 40.2115 33.9165C40.2115 33.5442 39.8392 32.179 38.9704 31.5584C38.9704 31.5584 35.3713 29.2003 35.4954 27.2146C35.4954 27.2146 35.2472 24.8565 37.1088 25.1047H37.357C37.357 25.1047 36.9847 22.6225 37.9776 20.885C37.9776 20.885 38.2258 19.8921 38.1017 19.3956C38.1017 19.3956 37.7294 18.8992 37.4811 19.3956C37.4811 19.3956 36.9847 20.1403 36.8606 19.2715C36.7365 18.4028 36.6124 18.651 36.24 18.7751C36.24 18.7751 36.24 19.6439 35.8677 18.8992C35.8677 18.8992 35.3713 18.7751 35.3713 19.3956C35.3713 19.3956 34.8748 19.8921 34.5025 19.2715C34.5025 19.2715 34.1302 18.7751 34.0061 19.2715C34.0061 19.2715 33.7578 19.6439 33.6337 19.1474C33.6337 19.1474 33.3855 19.0233 33.3855 19.3956C33.3855 19.3956 33.1373 19.8921 33.0132 19.3956C33.0132 19.3956 31.7721 19.2715 31.648 18.5269L31.0274 9.71507C31.0274 9.71507 31.1515 7.48109 30.7792 7.10876C30.7792 7.10876 29.5381 5.86766 29.5381 5.74355C29.5381 5.61944 29.414 5.86766 29.414 5.86766L28.0488 7.23287C28.0488 7.23287 27.6764 7.72931 27.3041 7.35698C27.3041 7.35698 27.0559 7.23287 27.8006 6.73643L29.0417 5.61944L28.9175 5.37122Z" fill="white"/>
</svg>
